<svg xmlns="http://www.w3.org/2000/svg" viewBox="1414 160 454 504" width="216" height="239.8" role="img" aria-label="Sitting, front view"><title>Sitting, front view</title><g clip-path="url(#s10)">
      <path d="M1616.21,594.83l-9.89,10.48c-8.71,5.31-18.31,7.31-28.63,9.04-2.7,17.19-17.31,25.59-33.4,27.79-9.67,1.32-15.51-4.62-21.73-8.55-10.67-.43-22.83,3.7-32.75-3.75-4.37-3.28-6.72-8.41-6.33-13.88.94-13.01,15.8-16.09,16.84-20.04,3.42-12.96.66-25.93-1.12-39.07-3.79-28.09-12.44-53.6-26.58-78.02-40.7-70.3-7.94-125.73-18.3-147.42-5.51-11.54-13.61-19.5-14.01-33.85-.48-17.09,1.6-33.76,4.78-50.77,2.46-13.16-14.1-49.24-.2-57.39,7.18-4.21,14.93,3.58,22.79,9.69l23.24,18.06c13.62-3.6,27.57-3.66,41.64-.05l34.51-28.86c3.73-3.12,8.9-4,12.63-2.26,4.27,2,6.23,6.92,5.56,12.13l-6.27,48.66c2.63,19.92,9.09,38.46,4.27,58.31,12.58,12.38,25.64,19.86,41.88,24.6,35.97,10.49,53.54,45.02,61.55,80.72,8.6,38.34,28.12,49.57,33.21,71.42,3.77,16.22,2.33,32.61-.3,48.61,12.91,10.3,27.83,14.07,42.97,18.26,44.68,12.34,60.32-11.09,74.32-3.32,4.48,2.49,8.28,7.75,8.66,14.24.47,8.02-4.48,15.7-11.42,20.15-38.73,24.83-81.99,16.89-126.86,7.66,1.45,4.81,2.62,9.02.25,13.41-6.22,11.54-23.06,8.02-37.86,2.85l-18.2-1.1c-8.68-9.47-22.6-13.8-35.28-7.72Z" fill="#021F53"></path>
      <g>
        <path d="M1567.51,577.38c-4.04,5.26-8.56-.02-11.4-4.63l-6.09-12.65-3.88-.43c3.28-22.27,4.85-45.12.62-67.38-1.82,1.27-1.27,3.15-1.69,4-1.28.01-3.24-.15-3.42-1.02-8.86-41.09-5.02-79.06,27.5-110.53,11.29-20,15.97-42.26,14.02-66.79l3.35-2.2c1.17.8,2.17,2.37,1.78,5.31l27.18,11.6c16.22,4.69,31.07,11.85,41.67,25.45,12.52,16.04,19.88,34.72,23.86,54.67,3.44,17.24,10.71,32.13,20.76,46.21,17.63,24.68,16,44.96,11.37,74.51-2.14,13.69-7.24,26.01-6.3,40.52,8.24-12.07,7.76-24.52,11.25-37.72,11.24,10.74,26.39,13.46,41.12,17.56,21.58,6.01,42.43,6.63,63.29-2.64,3.96-1.76,11.54-1.89,14.07,1.74,5.27,7.56,1.22,16.74-5.85,21.69-34.24,23.97-79.81,15.61-120.76,7.09-2.11-.44-4.53-3.88-5.85-2.75-2.05,1.76-3.82,3.79-3.17,6.66l2.54,11.42c-14.43,12.88-27.75-2.14-48.04-.48-12.34-8.9-27.43-14.7-42.29-7.11l-12.95,12.64-21.3,6.29,7.08-36.86,9.98-30.7,17.54-51.44c6.29-18.44,28.3-26.86,45.91-23.74,2.66-.37,2.9-4.71,1.54-5.04-16.69-4.02-32.21,2.55-44.85,14.22,3.44-23.09,3.74-46.01.7-68.03-3.65-.7-4.88,2.38-4.55,5.37,2.94,26.85,2.46,53.05-6,78.35l-16.86,50.38-11.25,35.65c-4.98-1.34-8.64-1.31-10.62.81Z" fill="#021F53"></path>
        <path d="M1586.52,315.74l-1.1,31.2c-.82,19-8.62,35.39-21.28,49.28-16.13,17.7-24.67,39.22-23.65,63.43l4.59,36.62c1.74,13.91.35,28.15-1.45,41.98l-3.39,4.89c-17.09-17.8-34.44-35.49-52.05-53.06l.69-2.34c-6.06-5.63-11.21-12.09-15.08-19.96-14.52-29.5-19.03-61.37-13.82-93.84,2.17-13.56,3.06-26.41,2.5-40.41,24.99,14.64,59.1,11.25,87.84,4.78,14.44-3.25,24.91-12.82,31.2-26.02l5,3.44Z" fill="#FFFFFF"></path>
        <path d="M1541.26,551.1l-4.93,39.47c-2.26,18.11-15.17,21.55-14.35,35.76-3.54,1.57-11.6,3.81-14.39,1.36-2.51-3.67,2.28-8.81,4.2-12.67-8.38-.86-7.66,8.97-9.24,13.2-5.08,1.06-7.97-4.14-6.21-7.29l4.78-8.54c-5.97-.65-8.53,4.98-8.24,11.01-4.93-2-4.09-7.17-2.52-10.43,4.39-9.1,15.37-7.58,16.41-17.66,2.38-23.12-2.7-44.77-2.2-45.43.35-.45,1.59-.58,2-.74-2.64-4.34,3.01-7.19,7.02-8.36,6.82-1.99,9.91-.1,15.38,3.49,6.09-1.71,12.73-.53,12.28,6.83Z" fill="#FFFFFF"></path>
        <path d="M1567.51,577.38l10.92.39-6.1,32.56c-2.18,11.66-9.21,21.17-20.59,24.12-1.61-5.47.23-9.38.66-14.68-6.33,2.57-5.6,9.02-4.16,15.29-3.73,1.4-7.7,1.07-10.81.21-1.25-6.9.95-11.13,3.76-17.61-7.84,1.28-7.49,8.78-8.24,16.33-14.75-11.82,5.38-21.31,7.5-35.65l5.7-38.67c.02-1.91,4.53-5.83,5.51-3.77l6.55,13.79c2.07,4.36,5.2,7.54,9.31,7.69Z" fill="#FFFFFF"></path>
        <path d="M1488.88,487.75l20.79,19.29c5.45,5.06,9.8,9.44,14.63,15,5.37,6.18,12.91,9.91,16.69,18.77,1.62-.94,1.93-1.75,2.64-2.56-.17,1.31-1.27,3.02-2.01,4.48,2.62,3.26-.08,6.19-.35,8.37l-6.83-5.02c-5.28,3.14-7.64,1-11.57-1.77-4.92-3.46-13.17,1.27-16.28,4.83-1.19-.93-2.68-2.53-3.1-4.66-3.92-19.91-9.59-38.64-18.84-56.55l4.24-.19Z" fill="#021F53"></path>
        <path d="M1571.84,242.06c-5.34-5.4-9.96-12.96-17.64-16.64-4.52-2.17-10.89-1.25-13.44-5.84l31.26-26.71c1.43-1.23,4.21-.27,4.9.7.6.85,1.4,2.1.98,4.16l-3.79,18.54c-1.8,8.81.41,17.76-2.27,25.8Z" fill="#FECA98"></path>
        <path d="M1481.96,221.37c-16.06,1.91-29.27,19.15-28.57,19.07-.67.07-1.64-1.18-2.32-1.56l-4.55-26.58c-.94-5.48-1.5-10.96,1.27-15.87,7.58,1.46,12.97,5.98,18.43,10.66l15.74,14.28Z" fill="#FECA98"></path>
        <g>
          <path d="M1570.57,319.02c-4.69,6.03-11.44,11.08-19.96,13.02-32.56,7.42-66.03,11.19-91.93-8.42,9-8.31,22-4.64,24.61-16.2,1.71-7.57,6.67-10.42,12.91-13.69,19.78-10.39,11.11-39.56,22.07-53.55,3.45,11.51,7.14,21.91,8.08,32.75,2.37,27.28,22.88,13.39,27.56,26.46,3.2,8.93,8.63,15.07,16.66,19.63Z" fill="#FFFFFF"></path>
          <path d="M1519.44,308.77c-.55,4.41-1.31,4.28-3.09.23-2.85-3.01-6.81-4.79-8.4-10.31,5.65-3.19,13.11-3.66,19.32.33l-7.83,9.75Z" fill="#FECA98"></path>
          <path d="M1519.44,308.77c-.62,3.14.34,5.77,3.36,7.81,4.51,3.05,7.25,0,9.26,2.11,2.66,2.79-3.62,4.8-14.47-1.25-3.86,1.15-9.73,7.92-13.86,1.62,8.12-.27,12.82-4.16,12.62-10.07l3.09-.23Z" fill="#021F53"></path>
        </g>
        <g>
          <path d="M1571.84,242.06l4.6,24.92c3.42,18.51,4.25,39.04-5.87,52.04l-4.24,1.24c-7.78-5.55-13.53-13.03-17.26-22.42-13.09-1.86-21.36-7.7-24.78-17.51-1.23-10.68-3.52-21.13-6.87-31.35-1.48,14.61-5.18,28.08-11.09,40.41-6.76,5.01-13.06,10.29-18.89,15.84-1.38,4.9-2.52,8.28-6.72,11.67-3.4,2.75-17.82,8.13-22.03,6.72-17.88-13.54-13.4-47.98-7.19-72.64l-.42-12.1c5.86-8.83,20-23.14,30.89-17.51,3.86.22,7.6,3.43,13.36,1.39,18.92-6.71,34.81,5.9,45.44-3.18,12.57-1.06,29.44,9.06,31.08,22.48Z" fill="#021F53"></path>
          <path d="M1538.43,263.46l2.67,2.11c.37,18.08,3.88,3.98-1.45-4.1,1.99-2.75,6.47-2.2,9.63-1.02,1.95.73,4.7,2.63,5.03,6.31.5,5.44-3.58,10.28-7.22,12.01-4.6,2.18-11.59,2.34-14.81-2-3.64-4.9.69-12.74,6.15-13.31Z" fill="#4DAF6B"></path>
          <path d="M1538.43,263.46c.31-.03.79-1.4,1.22-1.99.48.56,1.29.34,2.08.41,4.04.33,6.96,15.6.96,15.57s-6.11-10.3-4.26-13.98Z" fill="#021F53"></path>
          <g>
            <path d="M1498.94,275.28c-2.01,6.3-10.91,6.45-15.69,4.2-5.25-2.46-9.69-9.57-5.7-15.51,3.26-4.86,10.24-5.01,14.68-2.03,3.15,2.11,8.66,7.24,6.71,13.34Z" fill="#4DAF6B"></path>
            <path d="M1489.42,262.3c.97-.29,4.4,7.59,3.4,11.07-.51,1.77-3.15,6.43-6.16,4.72-5.74-3.26-2.46-14.23,2.76-15.79Z" fill="#021F53"></path>
          </g>
        </g>
      </g>
    </g>
  <defs><clipPath id="s10"><path d="M0 0H2000V172.73168H0Z M0 172.73168H1428.96208V202.17458H0Z M1476.07072 172.73168H2000V202.17458H1476.07072Z M0 202.17458H2000V1500H0Z"></path></clipPath><clipPath id="c1"><ellipse cx="1605.61948" cy="598.6723000000001" rx="47.10864" ry="35.33148" transform="rotate(0 1605.61948 598.6723000000001)"></ellipse></clipPath></defs><g class="whitened"><path d="M1616.21,594.83l-9.89,10.48c-8.71,5.31-18.31,7.31-28.63,9.04-2.7,17.19-17.31,25.59-33.4,27.79-9.67,1.32-15.51-4.62-21.73-8.55-10.67-.43-22.83,3.7-32.75-3.75-4.37-3.28-6.72-8.41-6.33-13.88.94-13.01,15.8-16.09,16.84-20.04,3.42-12.96.66-25.93-1.12-39.07-3.79-28.09-12.44-53.6-26.58-78.02-40.7-70.3-7.94-125.73-18.3-147.42-5.51-11.54-13.61-19.5-14.01-33.85-.48-17.09,1.6-33.76,4.78-50.77,2.46-13.16-14.1-49.24-.2-57.39,7.18-4.21,14.93,3.58,22.79,9.69l23.24,18.06c13.62-3.6,27.57-3.66,41.64-.05l34.51-28.86c3.73-3.12,8.9-4,12.63-2.26,4.27,2,6.23,6.92,5.56,12.13l-6.27,48.66c2.63,19.92,9.09,38.46,4.27,58.31,12.58,12.38,25.64,19.86,41.88,24.6,35.97,10.49,53.54,45.02,61.55,80.72,8.6,38.34,28.12,49.57,33.21,71.42,3.77,16.22,2.33,32.61-.3,48.61,12.91,10.3,27.83,14.07,42.97,18.26,44.68,12.34,60.32-11.09,74.32-3.32,4.48,2.49,8.28,7.75,8.66,14.24.47,8.02-4.48,15.7-11.42,20.15-38.73,24.83-81.99,16.89-126.86,7.66,1.45,4.81,2.62,9.02.25,13.41-6.22,11.54-23.06,8.02-37.86,2.85l-18.2-1.1c-8.68-9.47-22.6-13.8-35.28-7.72Z" fill="#FFFFFF" stroke="#021F53" stroke-width="5" stroke-linejoin="round" clip-path="url(#c1)"></path></g></svg>