<svg xmlns="http://www.w3.org/2000/svg" viewBox="0 0 56 56" width="56" height="56"><path d="M28.00 28.00 L28.25 28.04 L28.48 28.15 L28.67 28.34 L28.81 28.59 L28.88 28.88 L28.88 29.21 L28.79 29.56 L28.62 29.90 L28.35 30.22 L28.00 30.50 L27.57 30.72 L27.07 30.85 L26.52 30.90 L25.94 30.83 L25.35 30.65 L24.76 30.35 L24.21 29.93 L23.72 29.39 L23.31 28.74 L23.00 28.00 L22.81 27.18 L22.77 26.30 L22.88 25.39 L23.15 24.47 L23.58 23.58 L24.18 22.74 L24.94 21.99 L25.84 21.34 L26.87 20.84 L28.00 20.50 L29.21 20.35 L30.47 20.39 L31.75 20.65 L33.00 21.12 L34.19 21.81 L35.28 22.71 L36.24 23.80 L37.04 25.06 L37.63 26.47 L38.00 28.00 L38.12 29.60 L37.99 31.24 L37.58 32.88 L36.90 34.47 L35.95 35.95 L34.76 37.30 L33.33 38.47 L31.71 39.41 L29.92 40.10 L28.00 40.50 L26.01 40.59 L23.98 40.36 L21.98 39.81 L20.06 38.92 L18.28 37.72 L16.67 36.23 L15.30 34.47 L14.21 32.48 L13.43 30.31 L13.00 28.00 L12.94 25.61 L13.26 23.21 L13.97 20.85 L15.06 18.60 L16.51 16.51 L18.30 14.65 L20.40 13.08 L22.75 11.83 L25.30 10.96 L28.00 10.50 L30.78 10.47 L33.56 10.88 L36.29 11.74 L38.87 13.03 L41.26 14.74 L43.37 16.83 L45.15 19.26 L46.55 21.97 L47.51 24.91 L48.00 28.00 L48.00 31.17 L47.50 34.33 L46.49 37.42 L44.99 40.34 L43.03 43.03 L40.64 45.39 L37.87 47.38 L34.80 48.92 L31.48 49.98 L28.00 50.50 L24.44 50.47 L20.89 49.87 L17.44 48.72 L14.19 47.01 L11.21 44.79 L8.58 42.11 L6.39 39.01 L4.70 35.57 L3.55 31.87 L3.00 28.00 L3.06 24.05 L3.75 20.12 L5.06 16.31 L6.97 12.72" fill="none" stroke="#FF8A00" stroke-width="2.2" stroke-linecap="round"></path></svg>